<svg xmlns="http://www.w3.org/2000/svg" viewBox="0 0 24 24" stroke-width="1.5" width="24" height="24" color="#000000"><defs><style>.cls-637b8d40f95e86b59c57a2c0-1{fill:none;stroke:currentColor;stroke-miterlimit:10;}</style></defs><g id="roll_brush" data-name="roll brush"><line class="cls-637b8d40f95e86b59c57a2c0-1" x1="23.5" y1="13.95" x2="17.74" y2="13.95"></line><line class="cls-637b8d40f95e86b59c57a2c0-1" x1="6.23" y1="13.95" x2="0.48" y2="13.95"></line><path class="cls-637b8d40f95e86b59c57a2c0-1" d="M17.74,11.07v5.76a5.89,5.89,0,0,1-.08,1,5.75,5.75,0,0,1-11.34,0,4.94,4.94,0,0,1-.09-1V11.07a5.12,5.12,0,0,1,.09-1A5.76,5.76,0,0,1,16.06,7a5.63,5.63,0,0,1,1.6,3.11A6.12,6.12,0,0,1,17.74,11.07Z"></path><path class="cls-637b8d40f95e86b59c57a2c0-1" d="M1.44,4.36v.81a4.91,4.91,0,0,0,1.4,3.44l0,0a4.93,4.93,0,0,0,3.51,1.47H17.63A4.91,4.91,0,0,0,21.1,8.67h0A4.91,4.91,0,0,0,22.54,5.2V4.36"></path><path class="cls-637b8d40f95e86b59c57a2c0-1" d="M17.66,17.78h0a4.81,4.81,0,0,1,3.38,1.4l.08.08a4.77,4.77,0,0,1,1.4,3.38v.9"></path><path class="cls-637b8d40f95e86b59c57a2c0-1" d="M1.44,23.54v-.87A4.78,4.78,0,0,1,2.8,19.33l.11-.11a4.78,4.78,0,0,1,3.41-1.44h0"></path><line class="cls-637b8d40f95e86b59c57a2c0-1" x1="11.99" y1="10.11" x2="11.99" y2="22.58"></line><line class="cls-637b8d40f95e86b59c57a2c0-1" x1="6.23" y1="10.11" x2="17.74" y2="10.11"></line><path class="cls-637b8d40f95e86b59c57a2c0-1" d="M13,1.48h0a2.88,2.88,0,0,1,2.88,2.88V6.79"></path><path class="cls-637b8d40f95e86b59c57a2c0-1" d="M8.15,6.79V4.36A2.88,2.88,0,0,1,11,1.48h0"></path></g></svg>