<?xml version="1.0" encoding="UTF-8" standalone="no"?><!DOCTYPE svg PUBLIC "-//W3C//DTD SVG 1.1//EN" "http://www.w3.org/Graphics/SVG/1.1/DTD/svg11.dtd"><svg width="100%" height="100%" viewBox="0 0 7232 1223" version="1.1" xmlns="http://www.w3.org/2000/svg" xmlns:xlink="http://www.w3.org/1999/xlink" xml:space="preserve" xmlns:serif="http://www.serif.com/" style="fill-rule:evenodd;clip-rule:evenodd;stroke-linejoin:round;stroke-miterlimit:2;"><g><path d="M676.863,1093.56l-412.078,0l0,-40.571c21.494,-7.453 43.262,-13.989 65.259,-19.587c21.997,-5.594 45.688,-10.25 71.123,-13.989l0,-832.381l-224.368,0l-77.723,200.053l-36.661,0c-2.934,-18.645 -5.387,-39.869 -7.334,-63.653c-1.97,-23.782 -3.666,-48.024 -5.133,-72.744c-1.467,-24.702 -2.704,-48.963 -3.667,-72.747c-0.986,-23.781 -1.466,-44.984 -1.466,-63.651l852.013,0c0,18.667 -0.504,39.651 -1.491,62.952c-0.986,23.323 -2.221,47.347 -3.712,72.048c-1.488,24.723 -2.978,48.963 -4.445,72.744c-1.488,23.784 -3.712,45.467 -6.667,65.054l-38.562,0l-77.104,-200.054l-222.902,0l0,832.384c25.411,4.68 49.126,9.334 71.123,13.99c21.997,4.68 43.261,11.192 63.789,19.586l0,40.566l0.006,0Z" style="fill:#142649;fill-rule:nonzero;"/><path d="M1573.79,231.795c-0.867,32.832 -2.379,65.861 -4.518,99.101c-2.157,33.24 -5.384,66.691 -9.677,100.333l-33.552,0l-52.909,-135.418l-281.328,0l0,326.237l210.349,0l50.328,-91.099l32.264,0c5.163,81.254 5.163,164.158 0,248.68l-32.264,0l-50.328,-93.562l-210.349,0l0,343.474l296.813,0l63.235,-147.73l32.261,0c6.008,34.472 10.325,69.365 12.904,104.642c2.581,35.296 3.003,70.998 1.291,107.104l-636.208,0l0,-35.701c30.104,-13.12 65.37,-22.968 105.818,-29.547l0,-730.037c-17.218,-3.269 -34.842,-7.579 -52.909,-12.925c-18.067,-5.328 -35.712,-11.275 -52.909,-17.851l0,-35.701l611.688,0Z" style="fill:#142649;fill-rule:nonzero;"/><path d="M1869.3,1008.61c10.325,9.848 23.653,18.274 40.005,25.237c16.333,6.984 40.851,10.464 73.557,10.464c27.526,0 53.334,-3.48 77.43,-10.464c24.074,-6.963 44.944,-17.235 62.589,-30.776c17.624,-13.541 31.616,-29.949 41.941,-49.245c10.323,-19.275 15.486,-41.24 15.486,-65.862c0,-32.818 -10.547,-60.322 -31.616,-82.485c-21.091,-22.16 -47.326,-41.856 -78.72,-59.091c-31.416,-17.234 -65.614,-34.048 -102.595,-50.474c-37,-16.408 -71.197,-35.896 -102.595,-58.478c-31.416,-22.565 -57.648,-49.648 -78.72,-81.253c-21.093,-31.587 -31.616,-71.192 -31.616,-118.8c0,-34.472 6.451,-65.248 19.358,-92.333c12.904,-27.083 31.173,-50.051 54.845,-68.942c23.653,-18.869 51.821,-33.432 84.525,-43.704c32.686,-10.253 69.243,-15.389 109.691,-15.389c52.467,0 100.437,3.904 143.888,11.696c43.435,7.811 77.632,17.445 102.595,28.931c0,13.965 -1.088,30.162 -3.224,48.626c-2.158,18.467 -4.739,37.55 -7.744,57.248c-3.024,19.696 -6.251,38.779 -9.678,57.246c-3.448,18.466 -6.896,34.682 -10.325,48.626l-33.552,0l-51.619,-168.658c-15.648,-6.56 -35.389,-11.486 -59.261,-14.774c-23.875,-3.272 -49.28,-4.925 -76.179,-4.925c-44.28,0 -79.888,11.696 -106.808,35.085c-26.92,23.39 -40.368,56.016 -40.368,97.872c0,33.662 10.587,61.976 31.798,84.944c21.213,22.987 47.829,43.51 79.848,61.555c32.021,18.061 66.44,35.507 103.218,52.32c36.779,16.832 71.179,36.317 103.2,58.477c32.019,22.16 58.638,48.435 79.848,78.79c21.214,30.376 31.819,68.133 31.819,113.261c0,36.933 -7.099,70.597 -21.293,100.949c-14.195,30.374 -34.64,56.224 -61.296,77.558c-26.678,21.352 -59.363,37.76 -98.078,49.245c-38.714,11.483 -82.592,17.235 -131.629,17.235c-54.2,0 -102.816,-6.158 -145.827,-18.467c-43.029,-12.312 -73.557,-25.429 -91.624,-39.395c0.848,-13.944 2.36,-30.776 4.518,-50.474c2.138,-19.699 4.72,-40.011 7.744,-60.942c3.002,-20.928 6.229,-41.24 9.677,-60.938c3.429,-19.699 6.877,-36.51 10.325,-50.475l33.552,0l52.91,180.979Z" style="fill:#142649;fill-rule:nonzero;"/><path d="M2860.38,231.795l285.197,0l0,35.701c-17.221,7.387 -33.997,13.541 -50.328,18.467c-16.355,4.925 -32.264,9.042 -47.749,12.309l-259.387,327.472c21.496,27.083 46.235,57.456 74.203,91.099c27.946,33.664 57.205,68.325 87.752,104.029c30.528,35.701 61.944,71.827 94.205,108.336c32.264,36.528 63.88,71.208 94.851,104.027l61.944,29.546l0,30.776l-161.31,0l-43.877,-29.546c-50.771,-56.63 -101.301,-117.76 -151.632,-183.432c-50.328,-65.651 -99.165,-132.131 -146.469,-199.435l-63.235,0l0,347.168c39.563,6.579 71.824,16.427 96.787,29.547l0,35.701l-326.494,0l0,-35.701c34.4,-13.12 69.686,-22.968 105.819,-29.547l0,-730.04c-38.715,-4.925 -74,-15.176 -105.819,-30.776l0,-35.701l326.494,0l0,35.701c-13.774,5.752 -28.835,11.291 -45.168,16.619c-16.352,5.346 -33.552,10.058 -51.619,14.157l0,341.013l77.429,-17.237l241.32,-323.776c-17.218,-4.096 -33.552,-8.616 -49.037,-13.541c-15.485,-4.926 -30.125,-10.656 -43.877,-17.235l0,-35.701Z" style="fill:#142649;fill-rule:nonzero;"/><path d="M3487.56,1093.56l-286.488,0l0,-35.702c30.971,-13.12 61.944,-22.968 92.915,-29.546l326.496,-811.286l37.424,0l326.493,811.286c17.2,3.288 34.197,6.981 50.973,11.08c16.776,4.114 32.464,10.272 47.104,18.466l0,35.702l-332.946,0l0,-35.702c17.2,-6.56 34.842,-12.312 52.912,-17.237c18.069,-4.925 35.69,-9.021 52.909,-12.309l-87.288,-225.288l-306.773,0l-84.71,225.288c36.136,4.925 73.115,14.773 110.982,29.546l0,35.702l-0.003,0Zm-0.605,-354.552l259.285,0l-101.403,-260.992l-24.378,-105.872l-2.56,0l-32.102,108.336l-98.842,258.528Z" style="fill:#142649;fill-rule:nonzero;"/><path d="M4125,114.283l401.81,0l0,40.568c-23.464,8.394 -46.928,15.629 -70.389,21.685c-23.464,6.077 -46.928,10.493 -70.389,13.291l0,830.981l337.285,0l86.52,-225.232l38.131,0c2.933,19.587 5.61,42.208 8.064,67.848c2.426,25.664 4.397,52.243 5.864,79.741c1.466,27.52 2.2,54.342 2.2,80.44c0,26.12 -0.504,49.446 -1.467,69.947l-737.629,0l0,-40.571c23.461,-10.253 44.954,-17.706 64.522,-22.384c19.544,-4.656 38.128,-8.392 55.726,-11.192l0,-829.578c-22.502,-3.718 -43.995,-8.614 -64.526,-14.691c-20.53,-6.056 -39.112,-12.811 -55.722,-20.285l0,-40.568l0,0Z" style="fill:#142649;fill-rule:nonzero;"/><path d="M5174.04,1093.56l-286.488,0l0,-35.702c30.971,-13.12 61.944,-22.968 92.915,-29.546l326.496,-811.286l37.424,0l326.493,811.286c17.2,3.288 34.197,6.981 50.973,11.08c16.776,4.114 32.464,10.272 47.104,18.466l0,35.702l-332.946,0l0,-35.702c17.2,-6.56 34.842,-12.312 52.912,-17.237c18.069,-4.925 35.69,-9.021 52.909,-12.309l-87.288,-225.288l-306.773,0l-84.71,225.288c36.136,4.925 73.115,14.773 110.982,29.546l0,35.702l-0.003,0Zm-0.603,-354.552l259.286,0l-101.403,-260.992l-24.379,-105.872l-2.56,0l-32.101,108.336l-98.843,258.528Z" style="fill:#142649;fill-rule:nonzero;"/><path d="M5806.38,1093.56l0,-35.702c34.397,-15.581 69.685,-25.429 105.821,-29.546l0,-730.035c-17.221,-3.269 -34.843,-7.579 -52.912,-12.925c-18.064,-5.328 -35.709,-11.275 -52.909,-17.851l0,-35.701l136.792,0c16.333,0 32.04,-0.406 47.101,-1.232c15.045,-0.808 30.749,-1.635 47.104,-2.464c16.333,-0.808 33.976,-1.632 52.909,-2.462c18.915,-0.808 40.43,-1.232 64.526,-1.232c34.397,0 69.464,2.675 105.173,8.003c35.691,5.347 67.949,15.389 96.787,30.163c28.813,14.773 52.264,35.509 70.33,62.168c18.067,26.68 27.099,61.362 27.099,104.029c0,21.352 -3.448,42.683 -10.323,64.016c-6.896,21.352 -17.421,41.243 -31.616,59.709c-14.194,18.467 -32.058,34.683 -53.554,48.627c-21.515,13.965 -46.902,24.219 -76.139,30.776l0,4.925c25.811,4.118 51.395,11.08 76.784,20.931c25.365,9.848 47.947,23.197 67.749,40.011c19.782,16.832 35.912,37.546 48.392,62.168c12.462,24.621 18.712,54.168 18.712,88.637c0,44.32 -10.322,82.485 -30.97,114.493c-20.646,32.008 -47.547,58.283 -80.654,78.79c-33.13,20.522 -70.776,35.509 -112.92,44.936c-42.162,9.424 -84.746,14.157 -127.757,14.157c-30.125,0 -64.101,-1.229 -101.947,-3.693c-37.866,-2.462 -74.424,-3.694 -109.693,-3.694l-123.885,0l0,-0.002Zm286.488,-470.275c14.618,0 32.042,-0.613 52.266,-1.845c20.203,-1.232 36.779,-2.654 49.686,-4.307c39.56,-13.12 72.045,-34.261 97.429,-63.4c25.368,-29.125 38.069,-63.4 38.069,-102.797c0,-54.168 -16.997,-94.795 -50.973,-121.878c-33.997,-27.082 -79.365,-40.624 -136.147,-40.624c-26.677,0 -49.482,0.422 -68.394,1.23c-18.936,0.829 -34.422,2.058 -46.459,3.693l0,329.933l64.523,0l0,-0.005Zm58.072,413.645c30.97,0 60.008,-4.501 87.106,-13.541c27.102,-9.021 50.331,-21.544 69.688,-37.549c19.358,-16.003 34.619,-35.278 45.814,-57.859c11.168,-22.565 16.776,-46.973 16.776,-73.251c0,-32.818 -6.675,-60.112 -20.003,-81.866c-13.349,-21.736 -31.416,-38.971 -54.2,-51.707c-22.805,-12.717 -49.04,-21.544 -78.72,-26.469c-29.683,-4.926 -60.453,-7.387 -92.272,-7.387l-96.787,0l0,339.779c12.038,3.288 26.456,5.752 43.232,7.389c16.776,1.653 43.232,2.461 79.366,2.461Z" style="fill:#142649;fill-rule:nonzero;"/><path d="M6756.16,1008.61c10.323,9.848 23.651,18.274 40.006,25.237c16.333,6.984 40.85,10.464 73.557,10.464c27.523,0 53.333,-3.48 77.429,-10.464c24.075,-6.963 44.944,-17.235 62.59,-30.776c17.621,-13.541 31.616,-29.949 41.941,-49.245c10.325,-19.275 15.488,-41.24 15.488,-65.862c0,-32.818 -10.547,-60.322 -31.616,-82.485c-21.091,-22.16 -47.325,-41.856 -78.72,-59.091c-31.416,-17.234 -65.613,-34.048 -102.595,-50.474c-37.002,-16.408 -71.2,-35.896 -102.594,-58.478c-31.416,-22.565 -57.648,-49.648 -78.723,-81.253c-21.091,-31.587 -31.616,-71.192 -31.616,-118.8c0,-34.472 6.453,-65.248 19.36,-92.333c12.904,-27.083 31.171,-50.051 54.843,-68.942c23.653,-18.869 51.824,-33.432 84.528,-43.704c32.685,-10.253 69.242,-15.389 109.69,-15.389c52.467,0 100.438,3.904 143.891,11.696c43.432,7.811 77.629,17.445 102.595,28.931c0,13.965 -1.088,30.162 -3.227,48.626c-2.16,18.467 -4.739,37.55 -7.744,57.248c-3.024,19.696 -6.251,38.779 -9.677,57.246c-3.448,18.466 -6.896,34.682 -10.326,48.626l-33.552,0l-51.618,-168.658c-15.646,-6.56 -35.387,-11.486 -59.262,-14.774c-23.874,-3.272 -49.28,-4.925 -76.178,-4.925c-44.278,0 -79.888,11.696 -106.808,35.085c-26.92,23.39 -40.368,56.016 -40.368,97.872c0,33.662 10.586,61.976 31.797,84.944c21.213,22.987 47.829,43.51 79.848,61.555c32.021,18.061 66.44,35.507 103.219,52.32c36.778,16.832 71.178,36.317 103.197,58.477c32.021,22.16 58.637,48.435 79.848,78.79c21.213,30.376 31.821,68.133 31.821,113.261c0,36.933 -7.098,70.597 -21.293,100.949c-14.195,30.374 -34.64,56.224 -61.296,77.558c-26.677,21.352 -59.363,37.76 -98.077,49.245c-38.715,11.483 -82.592,17.235 -131.63,17.235c-54.2,0 -102.816,-6.158 -145.824,-18.467c-43.032,-12.312 -73.56,-25.429 -91.624,-39.395c0.846,-13.944 2.36,-30.776 4.515,-50.474c2.139,-19.699 4.72,-40.011 7.741,-60.942c3.006,-20.928 6.232,-41.24 9.68,-60.938c3.427,-19.699 6.875,-36.51 10.323,-50.475l33.555,0l52.906,180.979Z" style="fill:#142649;fill-rule:nonzero;"/></g></svg>