<?xml version="1.0" encoding="UTF-8" standalone="no"?>
<!DOCTYPE svg PUBLIC "-//W3C//DTD SVG 1.1//EN" "http://www.w3.org/Graphics/SVG/1.1/DTD/svg11.dtd">
<svg width="100%" height="100%" viewBox="0 0 1410 1410" version="1.1" xmlns="http://www.w3.org/2000/svg" xmlns:xlink="http://www.w3.org/1999/xlink" xml:space="preserve" xmlns:serif="http://www.serif.com/" style="fill-rule:evenodd;clip-rule:evenodd;stroke-linejoin:round;stroke-miterlimit:2;">
    <g transform="matrix(1,0,0,1,-3425,-1566)">
        <g transform="matrix(0.688232,0,0,0.917643,3425,1566)">
            <rect id="compact_singlecolor_light" x="0" y="0" width="2048" height="1536" style="fill:none;"/>
            <clipPath id="_clip1">
                <rect id="compact_singlecolor_light1" serif:id="compact_singlecolor_light" x="0" y="0" width="2048" height="1536"/>
            </clipPath>
            <g clip-path="url(#_clip1)">
                <g transform="matrix(1.16174,0,0,0.323725,-61.399,-6.11009)">
                    <g transform="matrix(0.864828,0,0,2.32769,-6134.26,-626.517)">
                        <path d="M8484.74,1393.08C8531.59,1378.3 8466.18,1446.35 8446.98,1464.45C8357.14,1549.2 8263.99,1615.64 8206.4,1653.77C8190.59,1664.24 8184.83,1669.12 8169.7,1657.68C8071.53,1583.47 7845.95,1391.41 7744.6,1127.14C7717.75,1057.11 7734.98,1031.39 7751.14,1004.27C7786.42,945.104 7836.82,900.028 7906.02,865.038C8093.49,770.251 8219.34,868.765 8245.64,891.146C8291.9,930.504 8304.95,982.045 8293.87,1018.15C8289.63,1031.96 8281.2,1040.5 8273.53,1045.44C8264.84,1051.05 8258.72,1052.71 8258.89,1042.37C8258.94,1038.99 8258.61,1035.25 8257.88,1031.72C8252.04,1003.26 8208.3,951.879 8113.24,986.654C8092.2,994.352 7998.05,1050.09 8007.94,1165.96C8021.01,1318.98 8121.64,1385.49 8177.4,1404.34C8264.84,1433.91 8379.89,1426.16 8484.74,1393.08ZM8683.35,1053.85C8676.06,1077.57 8660.81,1120.1 8625.99,1169.33C8597.83,1209.14 8539.84,1272.82 8453.34,1305.28C8389.78,1329.14 8307.82,1341.39 8230.99,1315.41C8188.11,1300.91 8113.5,1249.88 8105.57,1157.05C8101.57,1110.18 8126.5,1081.42 8140.69,1073.43C8148.76,1068.89 8156.76,1065.95 8164.62,1064.47C8177.34,1062.09 8179.01,1065.19 8173.3,1076.79C8170.34,1082.79 8168.38,1089.11 8167.78,1093.68C8163.51,1126.02 8180.89,1145.28 8189.08,1154.47C8209.19,1177.06 8231.09,1184.31 8243.51,1185.19C8272.84,1187.28 8300.58,1177.75 8323.84,1161.32C8351.85,1141.53 8372.2,1111.53 8380.26,1092.45C8392.42,1063.68 8402.65,1028.5 8399.05,980.276C8394.86,924.004 8371.26,873.28 8336.23,828.755C8329.43,820.116 8330.98,809.203 8339.18,801.89C8376.6,768.546 8473.3,701.574 8634.34,699.251C8654.06,698.967 8655.79,703.366 8662.16,714.473C8739.79,849.811 8695.16,1011.23 8685.84,1045.46L8683.35,1053.85ZM8686.42,1043.48L8686.4,1043.55C8686.16,1044.4 8685.9,1045.29 8685.63,1046.23L8685.84,1045.46L8686.42,1043.48ZM7712.54,645.422C7724.48,636.797 7725.53,643.153 7724.34,657.839C7718.75,726.971 7728.68,785.236 7738.1,813.871C7742.33,826.727 7741.76,831.239 7731.71,840.299C7708.42,861.287 7694.44,876.867 7671.98,900.597C7656.94,916.486 7646.88,902.806 7644.61,881.045C7639.47,831.792 7638.16,780.624 7641.46,727.616C7643.17,700.044 7644.07,703.257 7654.92,692.871C7666.12,682.144 7685.32,665.073 7712.54,645.422ZM8052.1,510.639C8083.96,505.809 8084.02,509.83 8073.49,522.465C8024.76,580.974 8007.61,650.552 8001.7,697.333C7999.8,712.452 7991.51,715.923 7965.49,723.038C7939.46,730.153 7884.59,750.181 7860.48,762.371C7854.57,765.358 7848.74,768.374 7842.98,771.422C7829.21,778.706 7824.23,765.985 7823.66,763.747C7813.98,725.37 7804.96,657.65 7834.19,587.838C7840.58,572.553 7840.48,571.925 7855.75,565.485C7910.57,542.36 7976.02,522.169 8052.1,510.639ZM8276.11,511.176C8289.47,508.805 8312.66,510.82 8326.04,513.091C8420.51,529.134 8497.95,558.424 8558.37,589.356C8588.79,604.928 8576.03,609.503 8555.9,611.943C8398.61,631.01 8306.58,703.967 8268.58,741.958C8258.65,751.89 8248.07,752.811 8235.51,746.538C8216.34,736.971 8196.17,729.28 8175.51,723.381C8149.09,715.838 8126.68,711.584 8102.73,709.71C8095.3,709.129 8093.2,702.436 8094.05,697.348C8104.26,636.024 8141.64,535.038 8276.11,511.176Z" style="fill:rgb(49,94,227);"/>
                    </g>
                    <g transform="matrix(2.3438,0,0,1.94398,-6548.48,2386.59)">
                        <g transform="matrix(7.09237,0,0,23.0153,-127748,-61950.5)">
                            <path d="M18430.6,2732.81C18429.4,2732.81 18428.3,2732.63 18427.2,2732.29C18426.1,2731.95 18425.2,2731.5 18424.5,2730.95L18425.5,2728.74C18426.2,2729.23 18426.9,2729.64 18427.8,2729.95C18428.7,2730.28 18429.7,2730.44 18430.6,2730.44C18431.4,2730.44 18432.1,2730.35 18432.6,2730.17C18433.1,2730 18433.4,2729.76 18433.7,2729.46C18433.9,2729.15 18434,2728.81 18434,2728.43C18434,2727.96 18433.9,2727.59 18433.5,2727.3C18433.2,2727.02 18432.8,2726.79 18432.2,2726.62C18431.7,2726.44 18431.1,2726.28 18430.4,2726.14C18429.8,2726 18429.1,2725.83 18428.5,2725.63C18427.8,2725.43 18427.2,2725.17 18426.7,2724.85C18426.1,2724.53 18425.7,2724.11 18425.4,2723.59C18425,2723.06 18424.9,2722.39 18424.9,2721.57C18424.9,2720.73 18425.1,2719.96 18425.5,2719.27C18426,2718.57 18426.7,2718.02 18427.6,2717.6C18428.5,2717.18 18429.7,2716.97 18431.1,2716.97C18432,2716.97 18432.9,2717.09 18433.8,2717.32C18434.7,2717.55 18435.5,2717.89 18436.2,2718.33L18435.3,2720.56C18434.6,2720.14 18433.9,2719.83 18433.2,2719.64C18432.4,2719.44 18431.7,2719.34 18431,2719.34C18430.3,2719.34 18429.6,2719.44 18429.1,2719.63C18428.6,2719.82 18428.3,2720.07 18428,2720.38C18427.8,2720.69 18427.7,2721.05 18427.7,2721.44C18427.7,2721.91 18427.9,2722.28 18428.2,2722.56C18428.5,2722.85 18429,2723.07 18429.5,2723.24C18430,2723.4 18430.6,2723.56 18431.3,2723.71C18432,2723.86 18432.6,2724.03 18433.3,2724.22C18433.9,2724.41 18434.5,2724.67 18435,2724.98C18435.6,2725.29 18436,2725.71 18436.3,2726.23C18436.7,2726.76 18436.9,2727.42 18436.9,2728.23C18436.9,2729.05 18436.6,2729.81 18436.2,2730.51C18435.7,2731.2 18435,2731.76 18434.1,2732.18C18433.2,2732.6 18432,2732.81 18430.6,2732.81Z" style="fill:rgb(49,94,227);fill-rule:nonzero;"/>
                        </g>
                        <g transform="matrix(7.09237,0,0,23.0153,-127749,-61950.5)">
                            <path d="M18444.3,2732.73C18443,2732.73 18441.9,2732.47 18440.9,2731.96C18439.9,2731.44 18439.2,2730.73 18438.6,2729.82C18438.1,2728.91 18437.8,2727.88 18437.8,2726.71C18437.8,2725.55 18438.1,2724.51 18438.6,2723.6C18439.1,2722.7 18439.9,2721.99 18440.8,2721.47C18441.7,2720.96 18442.7,2720.7 18443.9,2720.7C18445,2720.7 18446.1,2720.95 18447,2721.45C18447.9,2721.95 18448.6,2722.66 18449.1,2723.57C18449.6,2724.48 18449.8,2725.55 18449.8,2726.79C18449.8,2726.9 18449.8,2727.03 18449.8,2727.18C18449.8,2727.33 18449.8,2727.47 18449.8,2727.59L18440,2727.59L18440,2725.77L18448.3,2725.77L18447.3,2726.35C18447.3,2725.68 18447.1,2725.08 18446.8,2724.57C18446.6,2724.05 18446.2,2723.65 18445.7,2723.36C18445.2,2723.06 18444.6,2722.92 18443.9,2722.92C18443.2,2722.92 18442.6,2723.06 18442.1,2723.36C18441.6,2723.65 18441.2,2724.05 18440.9,2724.58C18440.7,2725.1 18440.5,2725.71 18440.5,2726.41L18440.5,2726.85C18440.5,2727.55 18440.7,2728.18 18441,2728.71C18441.3,2729.25 18441.8,2729.67 18442.4,2729.97C18442.9,2730.27 18443.6,2730.42 18444.4,2730.42C18445.1,2730.42 18445.6,2730.31 18446.2,2730.1C18446.7,2729.89 18447.2,2729.57 18447.6,2729.14L18449.1,2730.83C18448.5,2731.45 18447.9,2731.92 18447.1,2732.25C18446.3,2732.57 18445.3,2732.73 18444.3,2732.73Z" style="fill:rgb(49,94,227);fill-rule:nonzero;"/>
                        </g>
                        <g transform="matrix(7.09237,0,0,23.0153,-127746,-61950.5)">
                            <path d="M18458.6,2732.59L18458.6,2730.21L18458.5,2729.71L18458.5,2725.55C18458.5,2724.74 18458.2,2724.12 18457.7,2723.67C18457.3,2723.22 18456.5,2723 18455.5,2723C18454.9,2723 18454.2,2723.1 18453.6,2723.31C18453,2723.51 18452.4,2723.8 18452,2724.15L18450.9,2722.16C18451.5,2721.68 18452.3,2721.32 18453.2,2721.07C18454,2720.82 18454.9,2720.7 18455.9,2720.7C18457.6,2720.7 18458.9,2721.11 18459.8,2721.92C18460.8,2722.74 18461.2,2724 18461.2,2725.7L18461.2,2732.59L18458.6,2732.59ZM18454.9,2732.73C18454,2732.73 18453.3,2732.58 18452.6,2732.28C18451.9,2731.98 18451.4,2731.57 18451.1,2731.04C18450.7,2730.5 18450.5,2729.9 18450.5,2729.22C18450.5,2728.56 18450.7,2727.97 18451,2727.44C18451.3,2726.92 18451.9,2726.5 18452.6,2726.19C18453.3,2725.88 18454.2,2725.73 18455.4,2725.73L18458.8,2725.73L18458.8,2727.55L18455.6,2727.55C18454.7,2727.55 18454.1,2727.7 18453.7,2728C18453.4,2728.31 18453.2,2728.68 18453.2,2729.12C18453.2,2729.61 18453.4,2730.01 18453.8,2730.3C18454.2,2730.59 18454.8,2730.74 18455.5,2730.74C18456.2,2730.74 18456.8,2730.58 18457.3,2730.28C18457.9,2729.97 18458.2,2729.52 18458.5,2728.92L18458.9,2730.57C18458.7,2731.26 18458.2,2731.79 18457.5,2732.17C18456.8,2732.54 18456,2732.73 18454.9,2732.73Z" style="fill:rgb(49,94,227);fill-rule:nonzero;"/>
                        </g>
                        <g transform="matrix(7.09237,0,0,23.0153,-127742,-61950.5)">
                            <path d="M18471.4,2732.81C18470.2,2732.81 18469.1,2732.61 18468.1,2732.22C18467.1,2731.84 18466.3,2731.28 18465.5,2730.57C18464.8,2729.86 18464.2,2729.02 18463.8,2728.06C18463.4,2727.1 18463.2,2726.04 18463.2,2724.89C18463.2,2723.74 18463.4,2722.68 18463.8,2721.72C18464.2,2720.76 18464.8,2719.92 18465.5,2719.2C18466.3,2718.49 18467.1,2717.94 18468.1,2717.55C18469.2,2717.16 18470.2,2716.97 18471.4,2716.97C18472.7,2716.97 18473.8,2717.19 18474.9,2717.62C18475.9,2718.05 18476.8,2718.69 18477.5,2719.53L18475.7,2721.29C18475.1,2720.68 18474.5,2720.22 18473.8,2719.92C18473.1,2719.62 18472.4,2719.47 18471.6,2719.47C18470.8,2719.47 18470,2719.6 18469.4,2719.87C18468.7,2720.13 18468.1,2720.51 18467.6,2720.99C18467.1,2721.47 18466.7,2722.05 18466.5,2722.71C18466.2,2723.37 18466.1,2724.1 18466.1,2724.89C18466.1,2725.68 18466.2,2726.41 18466.5,2727.07C18466.7,2727.73 18467.1,2728.3 18467.6,2728.79C18468.1,2729.27 18468.7,2729.65 18469.4,2729.91C18470,2730.18 18470.8,2730.31 18471.6,2730.31C18472.4,2730.31 18473.1,2730.16 18473.8,2729.86C18474.5,2729.55 18475.1,2729.09 18475.7,2728.47L18477.5,2730.22C18476.8,2731.07 18475.9,2731.71 18474.9,2732.15C18473.8,2732.59 18472.7,2732.81 18471.4,2732.81Z" style="fill:rgb(49,94,227);fill-rule:nonzero;"/>
                        </g>
                        <g transform="matrix(7.09237,0,0,23.0153,-127740,-61950.5)">
                            <path d="M18486.7,2732.59L18486.7,2730.21L18486.5,2729.71L18486.5,2725.55C18486.5,2724.74 18486.3,2724.12 18485.8,2723.67C18485.3,2723.22 18484.6,2723 18483.6,2723C18482.9,2723 18482.3,2723.1 18481.6,2723.31C18481,2723.51 18480.5,2723.8 18480,2724.15L18479,2722.16C18479.6,2721.68 18480.3,2721.32 18481.2,2721.07C18482.1,2720.82 18483,2720.7 18483.9,2720.7C18485.6,2720.7 18486.9,2721.11 18487.9,2721.92C18488.8,2722.74 18489.3,2724 18489.3,2725.7L18489.3,2732.59L18486.7,2732.59ZM18483,2732.73C18482.1,2732.73 18481.3,2732.58 18480.7,2732.28C18480,2731.98 18479.5,2731.57 18479.1,2731.04C18478.8,2730.5 18478.6,2729.9 18478.6,2729.22C18478.6,2728.56 18478.8,2727.97 18479.1,2727.44C18479.4,2726.92 18479.9,2726.5 18480.6,2726.19C18481.3,2725.88 18482.3,2725.73 18483.5,2725.73L18486.9,2725.73L18486.9,2727.55L18483.7,2727.55C18482.7,2727.55 18482.1,2727.7 18481.8,2728C18481.5,2728.31 18481.3,2728.68 18481.3,2729.12C18481.3,2729.61 18481.5,2730.01 18481.9,2730.3C18482.3,2730.59 18482.8,2730.74 18483.5,2730.74C18484.2,2730.74 18484.8,2730.58 18485.4,2730.28C18485.9,2729.97 18486.3,2729.52 18486.5,2728.92L18487,2730.57C18486.7,2731.26 18486.2,2731.79 18485.6,2732.17C18484.9,2732.54 18484,2732.73 18483,2732.73Z" style="fill:rgb(49,94,227);fill-rule:nonzero;"/>
                        </g>
                        <g transform="matrix(0.308159,0,0,1,-9001.71,-1892.68)">
                            <path d="M40345.2,2565.06L40417.8,2565.06L40417.8,2615.55L40345.2,2615.55L40345.2,2744.5C40345.2,2757.35 40348.5,2767.31 40355.1,2774.38C40361.7,2781.46 40371.1,2785 40383.1,2785C40397,2785 40408.7,2781.29 40418.2,2773.88L40436.3,2818.98C40428.7,2824.93 40419.5,2829.38 40408.6,2832.33C40397.8,2835.28 40386.6,2836.75 40375.2,2836.75C40345.5,2836.75 40322.6,2829.1 40306.3,2813.79C40290.1,2798.47 40281.9,2775.86 40281.9,2745.95L40281.9,2615.55L40237.8,2615.55L40237.8,2565.06L40281.9,2565.06L40281.9,2503.47L40345.2,2503.47L40345.2,2565.06Z" style="fill:rgb(49,94,227);fill-rule:nonzero;"/>
                        </g>
                    </g>
                    <g transform="matrix(1.37081,0,0,3.67526,-2528.39,-5736.58)">
                        <rect x="1883" y="1566" width="1286" height="1291" style="fill:none;"/>
                    </g>
                </g>
            </g>
        </g>
    </g>
</svg>
