<?xml version="1.0" encoding="UTF-8" standalone="no"?><!DOCTYPE svg PUBLIC "-//W3C//DTD SVG 1.1//EN" "http://www.w3.org/Graphics/SVG/1.1/DTD/svg11.dtd"><svg width="100%" height="100%" viewBox="0 0 1200 965" version="1.1" xmlns="http://www.w3.org/2000/svg" xmlns:xlink="http://www.w3.org/1999/xlink" xml:space="preserve" xmlns:serif="http://www.serif.com/" style="fill-rule:evenodd;clip-rule:evenodd;stroke-linejoin:round;stroke-miterlimit:2;"><g id="Layer-1" serif:id="Layer 1"><path d="M606.872,23.387c6.931,12.274 13.762,24.606 20.808,36.814c115.782,200.623 231.589,401.23 347.396,601.838c20.368,35.283 40.755,70.554 61.13,105.832c0.901,1.561 1.774,3.138 2.92,5.167l-254.254,0c0,-12.803 0.076,-25.577 -0.049,-38.348c-0.035,-3.635 -0.507,-7.287 -1.055,-10.89c-0.55,-3.619 -2.863,-5.436 -6.568,-5.571c-4.488,-0.165 -8.973,-0.626 -13.458,-0.619c-3.417,0.006 -4.79,-1.321 -4.74,-4.735c0.116,-7.997 -0.181,-16.006 0.109,-23.995c0.207,-5.706 -1.534,-10.485 -5.293,-14.584c-10.13,-11.046 -20.092,-22.26 -30.578,-32.958c-5.352,-5.461 -7.819,-11.077 -7.72,-18.958c0.432,-34.327 0.209,-68.662 0.17,-102.994c-0.01,-9.325 -0.074,-18.654 -0.385,-27.973c-0.165,-4.951 1.583,-8.342 5.62,-11.376c13.84,-10.399 27.516,-21.027 40.97,-31.919c2.13,-1.723 3.924,-5.246 3.956,-7.96c0.263,-22.46 0.138,-44.928 -0.011,-67.392c-0.06,-8.935 -2.746,-11.365 -11.898,-11.374c-18.333,-0.017 -36.666,-0.014 -54.998,0c-7.37,0.006 -10.769,2.713 -11.548,10.143c-0.57,5.443 -0.416,10.979 -0.305,16.469c0.067,3.295 -1.301,4.439 -4.443,4.406c-8.495,-0.088 -16.993,-0.146 -25.484,0.032c-3.499,0.073 -4.778,-1.382 -4.82,-4.685c-0.075,-5.826 -0.336,-11.649 -0.475,-17.474c-0.106,-4.442 -2.102,-7.269 -6.656,-7.906c-2.791,-0.39 -5.597,-0.936 -8.398,-0.947c-21.665,-0.078 -43.331,-0.047 -64.997,-0.04c-8.091,0.002 -11.188,2.755 -11.867,10.792c-0.434,5.136 -0.814,10.292 -0.844,15.442c-0.02,3.359 -1.079,4.866 -4.606,4.807c-8.331,-0.14 -16.666,-0.116 -24.998,-0.009c-3.195,0.041 -4.471,-1.246 -4.509,-4.436c-0.068,-5.825 -0.479,-11.645 -0.613,-17.47c-0.108,-4.686 -2.239,-7.555 -6.944,-8.265c-2.457,-0.37 -4.937,-0.816 -7.409,-0.826c-17.332,-0.071 -34.665,-0.042 -51.997,-0.036c-8.665,0.003 -11.668,2.55 -11.909,11.593c-0.409,15.321 -0.348,30.656 -0.397,45.985c-0.023,6.996 0.176,13.993 0.245,20.99c0.036,3.742 1.479,6.524 4.571,8.88c14.039,10.698 27.868,21.673 41.918,32.357c3.088,2.347 4.477,4.894 4.47,8.786c-0.088,45.665 0.001,91.33 -0.195,136.994c-0.012,2.837 -1.318,6.29 -3.205,8.394c-11.34,12.642 -22.96,25.034 -34.629,37.374c-4.146,4.385 -6.001,9.338 -5.918,15.343c0.113,8.16 -0.333,16.327 -0.205,24.486c0.064,3.996 -1.442,5.177 -5.3,5.074c-4.452,-0.118 -9.024,-0.026 -13.356,0.876c-4.706,0.98 -7.415,3.699 -7.237,9.481c0.459,14.949 0.154,29.922 0.154,45.385l-254.166,0l0,-1c1.37,-1.981 2.889,-3.877 4.09,-5.957c104.943,-181.718 209.868,-363.447 314.777,-545.185c38.065,-65.941 76.09,-131.904 114.133,-197.858l1,0Z" style="fill:#142649;"/><path d="M129.005,946.387l-66.275,0l0,-6.525c3.456,-1.199 6.957,-2.25 10.495,-3.15c3.538,-0.9 7.348,-1.649 11.439,-2.25l0,-133.875l-36.086,0l-12.5,32.175l-5.897,0c-0.471,-2.999 -0.866,-6.412 -1.179,-10.237c-0.317,-3.826 -0.59,-7.724 -0.826,-11.7c-0.235,-3.973 -0.434,-7.875 -0.589,-11.701c-0.159,-3.825 -0.236,-7.235 -0.236,-10.237l137.032,0c0,3.002 -0.081,6.377 -0.239,10.125c-0.159,3.751 -0.358,7.615 -0.597,11.588c-0.24,3.975 -0.479,7.875 -0.715,11.699c-0.24,3.825 -0.597,7.313 -1.073,10.463l-6.202,0l-12.401,-32.175l-35.85,0l0,133.875c4.087,0.752 7.902,1.501 11.439,2.25c3.538,0.752 6.958,1.8 10.26,3.15l0,6.525Z" style="fill:#142649;fill-rule:nonzero;"/><path d="M273.262,807.787c-0.14,5.28 -0.383,10.593 -0.727,15.938c-0.346,5.346 -0.866,10.727 -1.556,16.137l-5.397,0l-8.509,-21.779l-45.247,0l0,52.47l33.832,0l8.094,-14.653l5.189,0c0.83,13.069 0.83,26.403 0,39.996l-5.189,0l-8.094,-15.047l-33.832,0l0,55.242l47.737,0l10.171,-23.76l5.188,0c0.967,5.544 1.661,11.155 2.076,16.83c0.415,5.677 0.483,11.419 0.207,17.226l-102.323,0l0,-5.743c4.841,-2.109 10.513,-3.693 17.019,-4.752l0,-117.414c-2.769,-0.525 -5.604,-1.218 -8.51,-2.079c-2.905,-0.856 -5.743,-1.812 -8.509,-2.871l0,-5.741l98.38,0Z" style="fill:#142649;fill-rule:nonzero;"/><path d="M320.788,932.725c1.66,1.584 3.805,2.939 6.435,4.06c2.627,1.123 6.57,1.682 11.83,1.682c4.426,0 8.578,-0.559 12.453,-1.682c3.872,-1.121 7.229,-2.773 10.066,-4.951c2.835,-2.178 5.085,-4.817 6.746,-7.92c1.66,-3.1 2.491,-6.633 2.491,-10.593c0,-5.278 -1.697,-9.701 -5.085,-13.266c-3.393,-3.564 -7.612,-6.732 -12.662,-9.504c-5.052,-2.772 -10.552,-5.475 -16.5,-8.118c-5.951,-2.639 -11.451,-5.772 -16.501,-9.405c-5.052,-3.629 -9.271,-7.985 -12.66,-13.068c-3.392,-5.08 -5.085,-11.45 -5.085,-19.107c0,-5.544 1.037,-10.494 3.114,-14.85c2.075,-4.356 5.013,-8.049 8.82,-11.088c3.805,-3.035 8.335,-5.377 13.595,-7.029c5.257,-1.649 11.136,-2.474 17.642,-2.474c8.439,0 16.154,0.627 23.142,1.88c6.986,1.256 12.486,2.806 16.501,4.653c0,2.246 -0.175,4.851 -0.519,7.821c-0.347,2.97 -0.762,6.039 -1.246,9.207c-0.486,3.168 -1.005,6.237 -1.556,9.207c-0.554,2.97 -1.109,5.578 -1.661,7.821l-5.396,0l-8.302,-27.126c-2.516,-1.055 -5.691,-1.847 -9.531,-2.376c-3.84,-0.526 -7.926,-0.792 -12.252,-0.792c-7.122,0 -12.85,1.881 -17.179,5.643c-4.329,3.762 -6.492,9.009 -6.492,15.741c0,5.414 1.702,9.968 5.114,13.662c3.411,3.698 7.693,6.998 12.842,9.9c5.15,2.905 10.687,5.712 16.602,8.415c5.915,2.707 11.447,5.842 16.597,9.405c5.15,3.564 9.431,7.79 12.843,12.672c3.411,4.885 5.117,10.958 5.117,18.216c0,5.94 -1.141,11.354 -3.425,16.236c-2.283,4.885 -5.571,9.043 -9.858,12.474c-4.291,3.434 -9.548,6.073 -15.774,7.92c-6.227,1.847 -13.284,2.772 -21.171,2.772c-8.717,0 -16.536,-0.99 -23.453,-2.97c-6.921,-1.98 -11.83,-4.089 -14.737,-6.336c0.136,-2.243 0.38,-4.95 0.727,-8.118c0.344,-3.168 0.759,-6.435 1.245,-9.801c0.483,-3.366 1.002,-6.633 1.557,-9.801c0.551,-3.168 1.106,-5.871 1.66,-8.117l5.396,0l8.51,29.105Z" style="fill:#142649;fill-rule:nonzero;"/><path d="M480.188,807.787l45.869,0l0,5.741c-2.769,1.189 -5.467,2.179 -8.094,2.971c-2.63,0.792 -5.189,1.454 -7.679,1.979l-41.719,52.668c3.457,4.357 7.436,9.242 11.935,14.653c4.495,5.414 9.2,10.989 14.113,16.73c4.91,5.742 9.963,11.553 15.151,17.425c5.19,5.875 10.275,11.453 15.256,16.73l9.962,4.752l0,4.951l-25.943,0l-7.058,-4.752c-8.165,-9.109 -16.293,-18.941 -24.387,-29.502c-8.094,-10.559 -15.949,-21.251 -23.557,-32.076l-10.17,0l0,55.835c6.362,1.059 11.551,2.643 15.566,4.752l0,5.743l-52.511,0l0,-5.743c5.533,-2.109 11.207,-3.693 17.019,-4.752l0,-117.414c-6.227,-0.792 -11.901,-2.44 -17.019,-4.95l0,-5.741l52.511,0l0,5.741c-2.215,0.926 -4.638,1.817 -7.265,2.674c-2.629,0.859 -5.396,1.617 -8.301,2.276l0,54.847l12.453,-2.772l38.812,-52.075c-2.769,-0.659 -5.396,-1.385 -7.887,-2.177c-2.491,-0.792 -4.845,-1.714 -7.057,-2.773l0,-5.741Z" style="fill:#142649;fill-rule:nonzero;"/><path d="M580.962,889.363l41.702,0l-16.309,-41.976l-3.921,-17.028l-0.411,0l-5.164,17.425l-15.897,41.579Zm0.098,57.024l-46.077,0l0,-5.742c4.981,-2.109 9.962,-3.693 14.944,-4.752l52.511,-130.481l6.018,0l52.512,130.481c2.766,0.53 5.5,1.123 8.198,1.783c2.699,0.662 5.22,1.652 7.576,2.969l0,5.742l-53.55,0l0,-5.742c2.767,-1.054 5.605,-1.979 8.51,-2.771c2.906,-0.792 5.74,-1.451 8.51,-1.981l-14.039,-36.233l-49.339,0l-13.624,36.233c5.812,0.792 11.759,2.376 17.85,4.752l0,5.742Z" style="fill:#142649;fill-rule:nonzero;"/><path d="M683.581,788.887l64.625,0l0,6.525c-3.775,1.35 -7.549,2.514 -11.322,3.488c-3.774,0.977 -7.547,1.687 -11.321,2.137l0,133.65l54.247,0l13.916,-36.225l6.132,0c0.471,3.15 0.903,6.788 1.297,10.912c0.391,4.128 0.707,8.403 0.944,12.825c0.236,4.426 0.353,8.741 0.353,12.938c0,4.201 -0.082,7.952 -0.236,11.25l-118.635,0l0,-6.525c3.773,-1.649 7.23,-2.848 10.377,-3.6c3.144,-0.749 6.133,-1.35 8.963,-1.8l0,-133.425c-3.619,-0.597 -7.076,-1.385 -10.377,-2.363c-3.303,-0.974 -6.291,-2.059 -8.963,-3.262l0,-6.525Z" style="fill:#142649;fill-rule:nonzero;"/><path d="M852.204,889.363l41.701,0l-16.308,-41.976l-3.922,-17.028l-0.41,0l-5.165,17.425l-15.896,41.579Zm0.098,57.024l-46.078,0l0,-5.742c4.982,-2.109 9.962,-3.693 14.945,-4.752l52.51,-130.481l6.019,0l52.512,130.481c2.765,0.53 5.5,1.123 8.197,1.783c2.699,0.662 5.221,1.652 7.576,2.969l0,5.742l-53.549,0l0,-5.742c2.766,-1.054 5.604,-1.979 8.51,-2.771c2.906,-0.792 5.74,-1.451 8.51,-1.981l-14.039,-36.233l-49.34,0l-13.623,36.233c5.811,0.792 11.758,2.376 17.85,4.752l0,5.742Z" style="fill:#142649;fill-rule:nonzero;"/><path d="M1009.42,937.279c4.98,0 9.65,-0.724 14.01,-2.178c4.359,-1.451 8.094,-3.465 11.207,-6.039c3.113,-2.574 5.568,-5.674 7.369,-9.305c1.797,-3.629 2.697,-7.555 2.697,-11.782c0,-5.277 -1.072,-9.668 -3.217,-13.167c-2.146,-3.496 -5.052,-6.267 -8.716,-8.315c-3.668,-2.046 -7.887,-3.466 -12.661,-4.258c-4.773,-0.792 -9.722,-1.187 -14.839,-1.187l-15.569,0l0,54.647c1.938,0.529 4.256,0.926 6.953,1.188c2.7,0.266 6.954,0.396 12.766,0.396m-9.34,-66.527c2.352,0 5.153,-0.1 8.406,-0.297c3.248,-0.198 5.914,-0.428 7.991,-0.694c6.363,-2.11 11.588,-5.509 15.67,-10.197c4.08,-4.683 6.123,-10.196 6.123,-16.533c0,-8.712 -2.735,-15.245 -8.198,-19.602c-5.468,-4.356 -12.765,-6.534 -21.898,-6.534c-4.289,0 -7.957,0.069 -11,0.198c-3.045,0.133 -5.535,0.332 -7.473,0.594l0,53.065l10.379,0Zm-46.076,75.635l0,-5.742c5.531,-2.506 11.207,-4.09 17.018,-4.752l0,-117.414c-2.77,-0.525 -5.604,-1.219 -8.51,-2.079c-2.905,-0.856 -5.742,-1.812 -8.508,-2.871l0,-5.741l22,0c2.627,0 5.152,-0.066 7.576,-0.198c2.418,-0.13 4.945,-0.263 7.574,-0.397c2.627,-0.13 5.465,-0.263 8.51,-0.395c3.043,-0.13 6.502,-0.199 10.379,-0.199c5.531,0 11.172,0.43 16.914,1.287c5.74,0.861 10.93,2.475 15.568,4.851c4.633,2.376 8.405,5.712 11.311,9.999c2.906,4.291 4.359,9.869 4.359,16.731c0,3.434 -0.554,6.866 -1.66,10.296c-1.109,3.435 -2.802,6.633 -5.086,9.603c-2.283,2.971 -5.156,5.578 -8.613,7.821c-3.461,2.246 -7.543,3.896 -12.246,4.95l0,0.792c4.152,0.662 8.267,1.783 12.35,3.367c4.08,1.584 7.712,3.73 10.896,6.434c3.182,2.707 5.775,6.039 7.783,9.999c2.004,3.96 3.01,8.712 3.01,14.256c0,7.128 -1.66,13.267 -4.98,18.414c-3.323,5.149 -7.649,9.374 -12.973,12.672c-5.328,3.302 -11.383,5.712 -18.162,7.228c-6.78,1.515 -13.629,2.277 -20.547,2.277c-4.846,0 -10.309,-0.198 -16.397,-0.595c-6.089,-0.395 -11.97,-0.594 -17.642,-0.594l-19.924,0Z" style="fill:#142649;fill-rule:nonzero;"/><path d="M1106.76,932.725c1.66,1.584 3.805,2.939 6.436,4.06c2.627,1.123 6.57,1.682 11.83,1.682c4.425,0 8.578,-0.559 12.453,-1.682c3.871,-1.121 7.228,-2.773 10.066,-4.951c2.834,-2.178 5.084,-4.817 6.746,-7.92c1.66,-3.1 2.49,-6.633 2.49,-10.593c0,-5.278 -1.697,-9.701 -5.085,-13.266c-3.393,-3.564 -7.612,-6.732 -12.661,-9.504c-5.052,-2.772 -10.552,-5.475 -16.5,-8.118c-5.951,-2.639 -11.451,-5.772 -16.502,-9.405c-5.052,-3.629 -9.271,-7.985 -12.66,-13.068c-3.392,-5.08 -5.084,-11.45 -5.084,-19.107c0,-5.544 1.037,-10.494 3.114,-14.85c2.074,-4.356 5.013,-8.049 8.82,-11.088c3.805,-3.035 8.334,-5.377 13.594,-7.029c5.257,-1.649 11.136,-2.474 17.642,-2.474c8.44,0 16.155,0.627 23.143,1.88c6.986,1.256 12.486,2.806 16.5,4.653c0,2.246 -0.174,4.851 -0.518,7.821c-0.347,2.97 -0.763,6.039 -1.246,9.207c-0.486,3.168 -1.006,6.237 -1.557,9.207c-0.554,2.97 -1.109,5.578 -1.66,7.821l-5.396,0l-8.303,-27.126c-2.516,-1.055 -5.691,-1.847 -9.531,-2.376c-3.84,-0.526 -7.926,-0.792 -12.252,-0.792c-7.121,0 -12.85,1.881 -17.178,5.643c-4.33,3.762 -6.492,9.009 -6.492,15.741c0,5.414 1.701,9.968 5.113,13.662c3.412,3.698 7.694,6.998 12.842,9.9c5.15,2.905 10.688,5.712 16.602,8.415c5.916,2.707 11.447,5.842 16.597,9.405c5.151,3.564 9.432,7.79 12.844,12.672c3.41,4.885 5.117,10.958 5.117,18.216c0,5.94 -1.142,11.354 -3.426,16.236c-2.283,4.885 -5.57,9.043 -9.857,12.474c-4.291,3.434 -9.549,6.073 -15.775,7.92c-6.227,1.847 -13.284,2.772 -21.17,2.772c-8.717,0 -16.537,-0.99 -23.453,-2.97c-6.922,-1.98 -11.83,-4.089 -14.737,-6.336c0.135,-2.243 0.379,-4.95 0.727,-8.118c0.344,-3.168 0.758,-6.435 1.244,-9.801c0.484,-3.366 1.002,-6.633 1.557,-9.801c0.552,-3.168 1.107,-5.871 1.66,-8.117l5.396,0l8.51,29.105Z" style="fill:#142649;fill-rule:nonzero;"/></g></svg>